<svg width="1055" height="700" viewBox="0 0 1055 700" fill="none" xmlns="http://www.w3.org/2000/svg">
<g filter="url(#filter0_d)">
<path fill-rule="evenodd" clip-rule="evenodd" d="M737.494 223.688C720.722 226.823 737.163 238.515 737.494 223.688V223.688Z" fill="#7AC7FF" fill-opacity="0.51"/>
<path fill-rule="evenodd" clip-rule="evenodd" d="M765.629 413.851C765.297 411.978 764.999 410.115 764.676 408.206C759.703 408.506 756.731 410.252 758.124 415.104C760.62 414.71 763.125 414.28 765.629 413.851Z" fill="#7AC7FF" fill-opacity="0.51"/>
<path fill-rule="evenodd" clip-rule="evenodd" d="M772.344 522.712C752.404 523.517 747.17 542.343 756.432 554.351C776.499 559.728 790.956 530.546 772.344 522.712Z" fill="#7AC7FF" fill-opacity="0.51"/>
<path fill-rule="evenodd" clip-rule="evenodd" d="M744.023 423.28C745.289 425.631 745.763 428.111 754.02 425.466C757.248 420.638 753.374 412.73 749.612 410.774C743.757 413.228 738.229 415.883 740.243 423.937C742.175 424.797 744.036 425.637 744.023 423.28Z" fill="#7AC7FF" fill-opacity="0.51"/>
<path fill-rule="evenodd" clip-rule="evenodd" d="M697.176 660.829C667.858 670.014 671.137 712.564 701.644 710.263C720.573 708.846 732.835 687.576 717.216 665.174C718.064 659.177 723.093 656.123 726.585 652.011C761.639 660.91 782.094 628.174 771.52 598.129C760.353 566.331 709.484 572.284 695.227 603.266C704.159 628.962 687.659 637.596 697.176 660.829Z" fill="#7AC7FF" fill-opacity="0.51"/>
<path fill-rule="evenodd" clip-rule="evenodd" d="M715.06 480.265C691.992 486.229 669.971 491.827 666.958 515.385C654.653 519.83 646.387 527.179 641.661 537.033C645.671 547.405 643.922 556.766 647.328 570.81C640.703 580.952 631.848 589.509 636.113 607.427C640.651 613.425 651.954 609.888 650.519 624.304C662.964 617.923 666.159 619.728 678.983 621.419C676.489 608.074 687.467 604.336 685.518 591.366C695.774 589.332 698.741 582.081 708.619 579.757C707.337 567.838 708.382 557.567 717.647 553.143C715.106 533.182 713.492 502.54 715.06 480.265Z" fill="#7AC7FF" fill-opacity="0.51"/>
<path fill-rule="evenodd" clip-rule="evenodd" d="M696.465 404.275C692.96 379.274 670.211 358.567 643.868 366.842C644.369 366.672 626.889 375.423 624.502 377.82C619.981 382.377 621.619 393.253 614.224 396.926C616.38 413.937 619.102 420.625 626.163 433.485C634.083 432.381 640.09 434.029 642.756 440.36C649.184 434.492 655.428 440.491 661.843 439.06C681.319 434.753 687.965 419.152 696.465 404.275Z" fill="#7AC7FF" fill-opacity="0.51"/>
<path fill-rule="evenodd" clip-rule="evenodd" d="M574.684 505.841C565.501 507.555 561.92 513.275 561.878 521.5C568.963 524.081 578.409 516.289 574.684 505.841Z" fill="#7AC7FF" fill-opacity="0.51"/>
<path fill-rule="evenodd" clip-rule="evenodd" d="M492.723 488.814C486.794 485.176 481.115 487.259 475.841 491.653C476.366 494.791 476.9 497.895 477.424 501.034C486.653 504.531 495.919 501.663 492.723 488.814Z" fill="#7AC7FF" fill-opacity="0.51"/>
<path fill-rule="evenodd" clip-rule="evenodd" d="M950.635 -112.053C951.416 -106.189 953.235 -101.793 956.574 -99.5316C961.419 -95.387 966.798 -102.864 970.018 -99.8761C971.902 -93.0334 961.553 -94.8957 962.224 -88.9091C965.918 -88.6784 973.09 -93.3603 972.232 -86.759C966.666 -83.5442 959.996 -81.1569 956.6 -76.412C960.163 -73.7116 965.227 -73.0757 972.24 -75.1815C973.209 -67.3315 959.046 -70.2534 956.608 -64.8345C964.664 -52.429 955.618 -41.0383 952.601 -31.3342C954.956 -27.6669 961.154 -29.4218 961.689 -23.2063C956.299 -18.2368 940.142 -20.9342 944.815 -8.7897C945.519 -2.0734 954.235 -6.56943 954.201 1.20159C950.406 5.87763 945.245 -1.61559 940.136 -2.22556C932.779 13.9061 949.95 22.3024 957.375 31.5407C970.838 31.6944 977.374 27.8289 983.345 36.8295C982.716 42.9989 973.2 42.84 973.977 49.9932C974.447 54.7494 977.84 55.3929 980.869 56.5461C982.745 62.2861 976.656 62.3622 976.81 66.8819C980.578 74.7609 991.978 71.8569 997.768 76.862C995.734 81.4785 982.715 78.2556 983.711 85.0123C992.735 97.4874 987.569 119.595 970.957 123.835C966.675 134.719 979.563 132.631 981.628 141.344C972.165 143.818 968.374 138.286 960.049 139.205C951.631 145.564 956.774 160.909 958.823 166.43C937.96 167.139 920.689 170.861 925.111 195.272C916.054 199.487 918.496 187.541 910.713 189.972C891.876 199.119 897.786 225.902 882.03 237.279C891.514 267.145 882.292 283.726 875.564 302.038C877.993 305.573 880.649 308.827 883.078 312.362C866.953 324.551 865.924 347.501 848.429 358.715C843.368 357.359 840.894 352.294 834.031 353.415C843.908 370.066 842.266 378.886 841.614 398.446C832.471 394.63 817.776 397.942 822.868 413.196C816.028 415.083 816.682 406.415 808.803 409.769C792.236 434.932 815.472 478.313 788.612 496.164C780.808 493.58 770.594 494.183 762.021 498.717C758.63 491.129 752.89 486.782 742.926 488.439C724.647 467.753 730.833 433.622 764.086 430.843C758.119 414.747 779.811 389.287 757.737 370.165C750.174 377.437 741.874 376.845 734.6 381.765C735.48 371.829 728.17 357.916 732.668 347.356C715.713 332.49 744.926 320.014 746.367 302.601C747.19 292.878 739.744 284.848 741.951 276.331C747.27 255.63 773.414 245.406 798.195 255.272C795.523 244.575 805.375 242.774 804.109 233.061C792.505 233.898 784.615 229.507 779.084 221.839C781.595 208.925 773.172 206.668 781.849 192.408C776.976 187.801 772.974 180.087 769.944 190.546C769.269 188.392 769.377 185.157 767.118 185.235C763.943 189.015 755.762 189.251 750.857 191.846C749.914 183.472 767.037 187.946 763.96 178.051C758.677 176.673 756.889 185.189 756.158 177.441C760.537 173.414 764.407 169.024 760.829 159.299C768.909 153.494 779.703 149.593 776.12 135.502C780.412 131.376 789.217 130.51 791.752 125.154C796.765 94.6943 792.73 65.3011 802.565 40.3456C797.811 37.1362 803.197 34.025 799.12 31.2626C805.706 24.9437 822.102 25.6177 814.743 9.33808C802.507 14.9402 801.844 4.24983 792.831 5.32639C800.615 -10.8426 788.666 -19.0538 782.466 -33.429C792.992 -38.3127 789.534 -52.4465 783.692 -60.6536C791.1 -61.9703 791.668 -68.1941 795.256 -72.2423C795.29 -80.0133 786.574 -75.5173 785.835 -82.2431C789.423 -86.2912 797.798 -86.9694 792.999 -96.9463C804.22 -97.2035 804.177 -112.472 801.117 -117.618C806.826 -121.933 809.587 -118.081 817.999 -120.457C817.667 -122.33 817.37 -124.193 817.046 -126.102C835.781 -128.634 834.659 -140.586 855.5 -138.379C855.662 -143.232 853.522 -149.687 859.226 -150.588C864.3 -149.988 860.187 -136.478 867.072 -138.391C886.364 -137.624 892.066 -146.305 904.563 -156.278C905.181 -149.243 897.447 -148.127 901.789 -138.424C917.174 -131.569 936.046 -138.581 945.228 -143.825C943.939 -137.036 934.141 -136.283 936.489 -126.925C942.409 -114.902 962.82 -126.663 969.308 -126.671C963.604 -121.52 954.138 -118.895 950.635 -112.053ZM855.397 205.018C857.783 210.553 850.859 209.495 853.245 215.03C859.07 216.933 863.713 220.416 869.838 221.905C871.031 216.039 866.093 201.622 855.397 205.018Z" fill="#7AC7FF" fill-opacity="0.51"/>
<path fill-rule="evenodd" clip-rule="evenodd" d="M163.335 130.356C149.41 127.832 142.88 140.052 147.435 149.793C160.493 156.614 175.006 138.652 163.335 130.356Z" fill="#78C6FF" fill-opacity="0.47"/>
<path fill-rule="evenodd" clip-rule="evenodd" d="M94.3733 220.108C72.6645 221.935 68.3615 251.888 89.8303 255.009C103.15 256.953 114.921 244.127 107.572 226.211C109.085 222.192 113.037 220.855 116.089 218.549C138.975 230.123 158.188 210.628 155.511 188.202C152.694 164.471 116.568 160.732 101.916 179.97C104.129 199.133 91.3757 202.559 94.3733 220.108Z" fill="#78C6FF" fill-opacity="0.47"/>
<path fill-rule="evenodd" clip-rule="evenodd" d="M279.821 116.112C254.81 113.886 230.945 111.681 225.181 130.416C211.701 130.283 202.167 133.839 196.096 140.591C199.193 150.508 196.32 157.779 198.376 170.573C190.269 176.974 179.981 181.354 182.519 197.651C186.653 204.078 198.975 204.656 195.879 216.248C209.719 214.807 212.895 217.313 226.249 222.732C225.08 210.807 237.081 211.115 236.445 199.674C247.497 201.179 251.425 196.05 262.11 197.195C262.063 186.84 264.293 178.588 274.56 177.788C274.066 160.323 275.722 134.226 279.821 116.112Z" fill="#78C6FF" fill-opacity="0.47"/>
<path fill-rule="evenodd" clip-rule="evenodd" d="M78.753 477.215C94.0781 423.077 15.1795 429.839 13.1771 465.657C11.4527 496.341 68.4426 513.561 78.753 477.215Z" fill="#78C6FF" fill-opacity="0.47"/>
<path fill-rule="evenodd" clip-rule="evenodd" d="M62.5186 273.681C67.0903 253.37 33.7412 252.958 31.6803 269.36C29.5681 286.029 57.9982 293.725 62.5186 273.681Z" fill="#78C6FF" fill-opacity="0.47"/>
<path fill-rule="evenodd" clip-rule="evenodd" d="M591.01 601.168C591.063 571.807 545.037 581.487 547.239 604.696C549.453 628.288 590.946 630.146 591.01 601.168Z" fill="#7AC7FF" fill-opacity="0.51"/>
</g>
<defs>
<filter id="filter0_d" x="0.0200195" y="-181" width="1054.85" height="912.955" filterUnits="userSpaceOnUse" color-interpolation-filters="sRGB">
<feFlood flood-opacity="0" result="BackgroundImageFix"/>
<feColorMatrix in="SourceAlpha" type="matrix" values="0 0 0 0 0 0 0 0 0 0 0 0 0 0 0 0 0 0 127 0"/>
<feOffset dy="4"/>
<feGaussianBlur stdDeviation="2"/>
<feColorMatrix type="matrix" values="0 0 0 0 0 0 0 0 0 0 0 0 0 0 0 0 0 0 0.25 0"/>
<feBlend mode="normal" in2="BackgroundImageFix" result="effect1_dropShadow"/>
<feBlend mode="normal" in="SourceGraphic" in2="effect1_dropShadow" result="shape"/>
</filter>
</defs>
</svg>
